<?xml version="1.0" encoding="UTF-8" standalone="no"?>
<svg
   xmlns:dc="http://purl.org/dc/elements/1.1/"
   xmlns:cc="http://creativecommons.org/ns#"
   xmlns:rdf="http://www.w3.org/1999/02/22-rdf-syntax-ns#"
   xmlns:svg="http://www.w3.org/2000/svg"
   xmlns="http://www.w3.org/2000/svg"
   xmlns:sodipodi="http://sodipodi.sourceforge.net/DTD/sodipodi-0.dtd"
   xmlns:inkscape="http://www.inkscape.org/namespaces/inkscape"
   version="1.1"
   id="svg2"
   xml:space="preserve"
   width="408.18668"
   height="124.72"
   viewBox="0 0 408.18668 124.72"
   sodipodi:docname="MiP_Logo_Basic_1_rgb.eps"><metadata
     id="metadata8"><rdf:RDF><cc:Work
         rdf:about=""><dc:format>image/svg+xml</dc:format><dc:type
           rdf:resource="http://purl.org/dc/dcmitype/StillImage" /></cc:Work></rdf:RDF></metadata><defs
     id="defs6" /><sodipodi:namedview
     pagecolor="#ffffff"
     bordercolor="#666666"
     borderopacity="1"
     objecttolerance="10"
     gridtolerance="10"
     guidetolerance="10"
     inkscape:pageopacity="0"
     inkscape:pageshadow="2"
     inkscape:window-width="640"
     inkscape:window-height="480"
     id="namedview4" /><g
     id="g10"
     inkscape:groupmode="layer"
     inkscape:label="ink_ext_XXXXXX"
     transform="matrix(1.3333333,0,0,-1.3333333,0,124.72)"><g
       id="g12"
       transform="scale(0.1)"><path
         d="m 2593.7,935.434 c 258.31,0 467.72,-209.407 467.72,-467.719 v 0 C 3061.42,210.473 2850.95,0 2593.7,0 H 467.715 C 209.402,0 0,209.402 0,467.715 v 0 C 0,724.961 210.473,935.434 467.719,935.434 H 2593.7"
         style="fill:#123274;fill-opacity:1;fill-rule:nonzero;stroke:none"
         id="path14" /><path
         d="m 1135.14,611.391 c 0,19.5 -14.49,34.004 -32.5,34.004 -18,0 -32.5,-14.504 -32.5,-34.004 V 389.262 c 0,-44.504 -34.5,-78.5 -78.007,-78.5 -43.5,0 -78,33.996 -78,78.5 v 179.609 c 0,19.5 -14.504,34.004 -32.504,34.004 -18,0 -32.5,-14.504 -32.5,-34.004 V 333.766 c 0,-12.5 -10.504,-22.996 -23.004,-22.996 -12.5,0 -23,10.496 -23,22.996 v 235.105 c 0,45 35,79.004 78.504,79.004 43.504,0 78.504,-34.004 78.504,-79.004 V 389.262 c 0,-18.996 14.004,-33.5 32,-33.5 18.007,0 32.007,14.504 32.007,33.5 v 222.129 c 0,45 35,79.004 78.5,79.004 43.5,0 78.51,-34.004 78.51,-79.004 V 250.457 c 0,-12.5 -10.5,-22.996 -23,-22.996 -12.5,0 -23.01,10.496 -23.01,22.996 v 360.934"
         style="fill:#ee7bae;fill-opacity:1;fill-rule:nonzero;stroke:none"
         id="path16" /><path
         d="m 1362.35,336.945 c -79,0 -136.51,58.508 -136.51,132.512 0,74.004 57.51,132.508 136.51,132.508 h 30.5 c 50,0 83,-35 83,-78.008 0,-42.996 -33,-77.5 -83,-77.5 h -61 c -12.01,0 -22.01,10 -22.01,22.004 0,12 10,22 22.01,22 h 61 c 23,0 38,15 38,33.496 0,18.508 -15,34.004 -38,34.004 h -30.5 c -52.51,0 -91.5,-39.004 -91.5,-88.504 0,-50 38.99,-88.508 91.5,-88.508 h 71.25 c 12,0 22,-10 22,-22 0,-12.004 -10,-22.004 -22,-22.004 h -71.25"
         style="fill:#ee7bae;fill-opacity:1;fill-rule:nonzero;stroke:none"
         id="path18" /><path
         d="M 1689.01,486.957 H 1626 c -52.5,0 -91.5,-39.004 -91.5,-88.508 0,-50 39,-88.504 91.5,-88.504 h 63.01 z M 1626,265.941 c -79,0 -136.5,58.504 -136.5,132.508 0,74.004 57.5,132.512 136.5,132.512 h 63.01 v 87.004 c 0,12.5 10,22.5 22.5,22.5 12.5,0 22.5,-10 22.5,-22.5 V 288.949 c 0,-13.008 -10.5,-23.008 -23,-23.008 H 1626"
         style="fill:#ee7bae;fill-opacity:1;fill-rule:nonzero;stroke:none"
         id="path20" /><path
         d="m 2004.91,486.961 c 52.51,0 92.01,38.504 92.01,88.504 0,49.504 -39.5,88.508 -92.01,88.508 h -62.5 V 486.961 Z m -62.5,-44.008 v -87 c 0,-12.5 -10,-22.5 -22.5,-22.5 -12.5,0 -22.5,10 -22.5,22.5 v 329.024 c 0,12.5 10,23 23,23 h 84.5 c 79.01,0 137.02,-58.508 137.02,-132.512 0,-74.004 -58.01,-132.512 -137.02,-132.512 h -62.5"
         style="fill:#54bbab;fill-opacity:1;fill-rule:nonzero;stroke:none"
         id="path22" /><path
         d="m 2274.72,558.465 c -31.5,0 -53.5,-23.496 -53.5,-54.004 V 355.453 c 0,-12.5 -10,-22 -22.5,-22 -12.5,0 -22.5,9.5 -22.5,22 v 149.008 c 0,54.004 42.5,97.508 98.5,97.508 h 48.59 c 12,0 22,-10 22,-22 0,-12.004 -10,-22.004 -22,-22.004 l -48.59,0.5"
         style="fill:#54bbab;fill-opacity:1;fill-rule:nonzero;stroke:none"
         id="path24" /><path
         d="m 2425.58,277.23 c -79.01,0 -136.51,58.508 -136.51,132.512 0,74.004 57.5,132.512 136.51,132.512 h 30.5 c 50,0 83,-35 83,-78.012 0,-42.996 -33,-77.5 -83,-77.5 h -61 c -12.01,0 -22.01,10 -22.01,22.004 0,12 10,22 22.01,22 h 61 c 23,0 38,15 38,33.496 0,18.508 -15,34.004 -38,34.004 h -30.5 c -52.51,0 -91.51,-39.004 -91.51,-88.504 0,-50 39,-88.508 91.51,-88.508 h 71.25 c 12,0 22,-10 22,-22 0,-12.004 -10,-22.004 -22,-22.004 h -71.25"
         style="fill:#54bbab;fill-opacity:1;fill-rule:nonzero;stroke:none"
         id="path26" /><path
         d="m 2691.29,380.949 c 52.51,0 92.01,38.508 92.01,88.508 0,49.5 -39.5,88.504 -92.01,88.504 h -62.5 V 380.949 Z m -62.5,-44.004 v -87 c 0,-12.5 -10,-22.5 -22.5,-22.5 -12.5,0 -22.5,10 -22.5,22.5 v 329.024 c 0,12.5 10,22.996 23,22.996 h 84.5 c 79.01,0 137.01,-58.504 137.01,-132.508 0,-74.004 -58,-132.512 -137.01,-132.512 h -62.5"
         style="fill:#54bbab;fill-opacity:1;fill-rule:nonzero;stroke:none"
         id="path28" /><path
         d="m 1793.22,552.781 c 0,12.5 10,22.508 22.5,22.508 12.5,0 22.5,-10.008 22.5,-22.508 V 324.273 c 0,-12.507 -10,-22 -22.5,-22 -12.5,0 -22.5,9.493 -22.5,22 z m -6.51,82.504 c 0,15.996 13.01,29.004 29.01,29.004 16,0 29,-13.008 29,-29.004 0,-16.008 -13,-29.004 -29,-29.004 -16,0 -29.01,12.996 -29.01,29.004"
         style="fill:#ffffff;fill-opacity:1;fill-rule:nonzero;stroke:none"
         id="path30" /><path
         d="m 395.27,389.629 h -66.071 c -52.859,0 -96.105,43.25 -96.105,96.105 v 48.055 c 0,6.637 5.379,12.012 12.011,12.012 H 395.27 v 66.074 c 0,52.859 43.25,96.105 96.109,96.105 h 48.051 c 6.636,0 12.011,-5.378 12.011,-12.011 V 545.801 h 66.075 c 52.859,0 96.105,-43.246 96.105,-96.106 v -48.05 c 0,-6.637 -5.379,-12.016 -12.012,-12.016 H 551.441 v -66.07 c 0,-52.86 -43.246,-96.106 -96.101,-96.106 h -48.055 c -6.637,0 -12.015,5.375 -12.015,12.012 v 150.164"
         style="fill:#ffffff;fill-opacity:1;fill-rule:nonzero;stroke:none"
         id="path32" /><path
         d="m 449.332,467.715 c 0,13.273 10.758,24.031 24.023,24.031 13.274,0 24.028,-10.758 24.028,-24.031 0,-13.27 -10.754,-24.027 -24.028,-24.027 -13.265,0 -24.023,10.757 -24.023,24.027"
         style="fill:#54bbab;fill-opacity:1;fill-rule:nonzero;stroke:none"
         id="path34" /><path
         d="m 371.246,467.715 c 0,13.269 10.758,24.027 24.024,24.027 13.269,0 24.027,-10.758 24.027,-24.027 0,-13.27 -10.758,-24.024 -24.027,-24.024 -13.266,0 -24.024,10.754 -24.024,24.024"
         style="fill:#ee7bae;fill-opacity:1;fill-rule:nonzero;stroke:none"
         id="path36" /><path
         d="m 293.16,467.715 c 0,13.269 10.754,24.027 24.028,24.027 13.265,0 24.023,-10.758 24.023,-24.027 0,-13.27 -10.758,-24.024 -24.023,-24.024 -13.274,0 -24.028,10.754 -24.028,24.024"
         style="fill:#54bbab;fill-opacity:1;fill-rule:nonzero;stroke:none"
         id="path38" /><path
         d="m 527.418,467.715 c 0,13.269 10.758,24.027 24.023,24.027 13.274,0 24.028,-10.758 24.028,-24.027 0,-13.27 -10.754,-24.024 -24.028,-24.024 -13.265,0 -24.023,10.754 -24.023,24.024"
         style="fill:#ee7bae;fill-opacity:1;fill-rule:nonzero;stroke:none"
         id="path40" /><path
         d="m 605.504,467.715 c 0,13.273 10.758,24.031 24.023,24.031 13.274,0 24.028,-10.758 24.028,-24.031 0,-13.27 -10.754,-24.027 -24.028,-24.027 -13.265,0 -24.023,10.757 -24.023,24.027"
         style="fill:#54bbab;fill-opacity:1;fill-rule:nonzero;stroke:none"
         id="path42" /><path
         d="m 449.332,545.801 c 0,13.269 10.758,24.027 24.023,24.027 13.274,0 24.028,-10.758 24.028,-24.027 0,-13.27 -10.754,-24.024 -24.028,-24.024 -13.265,0 -24.023,10.754 -24.023,24.024"
         style="fill:#ee7bae;fill-opacity:1;fill-rule:nonzero;stroke:none"
         id="path44" /><path
         d="m 449.332,623.887 c 0,13.269 10.758,24.027 24.023,24.027 13.274,0 24.028,-10.758 24.028,-24.027 0,-13.27 -10.754,-24.024 -24.028,-24.024 -13.265,0 -24.023,10.754 -24.023,24.024"
         style="fill:#54bbab;fill-opacity:1;fill-rule:nonzero;stroke:none"
         id="path46" /><path
         d="m 449.332,311.543 c 0,13.27 10.758,24.027 24.023,24.027 13.274,0 24.028,-10.757 24.028,-24.027 0,-13.27 -10.754,-24.023 -24.028,-24.023 -13.265,0 -24.023,10.753 -24.023,24.023"
         style="fill:#54bbab;fill-opacity:1;fill-rule:nonzero;stroke:none"
         id="path48" /><path
         d="m 449.332,389.629 c 0,13.269 10.758,24.027 24.023,24.027 13.274,0 24.028,-10.758 24.028,-24.027 0,-13.27 -10.754,-24.024 -24.028,-24.024 -13.265,0 -24.023,10.754 -24.023,24.024"
         style="fill:#ee7bae;fill-opacity:1;fill-rule:nonzero;stroke:none"
         id="path50" /></g></g></svg>
